<?xml version="1.0" standalone="no"?>
<!DOCTYPE svg PUBLIC "-//W3C//DTD SVG 1.1//EN" "http://www.w3.org/Graphics/SVG/1.1/DTD/svg11.dtd" >
<svg xmlns="http://www.w3.org/2000/svg" xmlns:xlink="http://www.w3.org/1999/xlink" version="1.1" viewBox="0 -64 1024 1024">
  <g transform="matrix(1 0 0 -1 0 960)">
   <path fill="currentColor"
d="M958 558q0 -15 -5.5 -28t-16.5 -24l-372 -372q-10 -10 -23.5 -16t-28.5 -6t-28 5.5t-24 16.5l-372 372q-10 10 -16 23.5t-6 28.5t5.5 28t16.5 24l42 42q12 10 25 16t27 6q16 0 28.5 -5.5t23.5 -16.5l278 -278l278 278q10 10 22.5 16t29.5 6q13 0 26.5 -5.5t25.5 -16.5
l42 -42q10 -12 16 -24.5t6 -27.5v0z" />
  </g>

</svg>
