<?xml version="1.0" standalone="no"?>
<!DOCTYPE svg PUBLIC "-//W3C//DTD SVG 1.1//EN" "http://www.w3.org/Graphics/SVG/1.1/DTD/svg11.dtd" >
<svg xmlns="http://www.w3.org/2000/svg" xmlns:xlink="http://www.w3.org/1999/xlink" version="1.1" viewBox="0 -64 1024 1024">
  <g transform="matrix(1 0 0 -1 0 960)">
   <path fill="currentColor"
d="M798 316q0 -4 -1.5 -7.5t-4.5 -6.5l-30 -28q-1 -3 -5 -4.5t-7 -1.5q-4 0 -7.5 1.5t-6.5 4.5l-224 224l-224 -224q-3 -3 -6 -4.5t-8 -1.5q-3 0 -6.5 1.5t-5.5 4.5l-30 28q-3 3 -4.5 6t-1.5 8q0 3 1.5 6t4.5 6l266 266q3 3 7 4.5t7 1.5t7 -1.5t7 -4.5l266 -266q3 -3 4.5 -6
t1.5 -6v0z" />
  </g>

</svg>
