<?xml version="1.0" standalone="no"?>
<!DOCTYPE svg PUBLIC "-//W3C//DTD SVG 1.1//EN" "http://www.w3.org/Graphics/SVG/1.1/DTD/svg11.dtd" >
<svg xmlns="http://www.w3.org/2000/svg" xmlns:xlink="http://www.w3.org/1999/xlink" version="1.1" viewBox="0 -64 1024 1024">
  <g transform="matrix(1 0 0 -1 0 960)">
   <path fill="currentColor"
d="M402 540v-330q0 -4 -1 -7t-3 -5q-3 -3 -6 -4.5t-8 -1.5h-36q-4 0 -7.5 1.5t-6.5 4.5q-3 1 -3.5 4t-0.5 8v330q0 3 0.5 6.5t3.5 5.5q3 3 6 4.5t8 1.5h36q4 0 7.5 -1.5t6.5 -4.5q1 -1 2.5 -5t1.5 -7v0zM548 540v-330q0 -4 -1 -7t-3 -5q-3 -3 -6 -4.5t-8 -1.5h-36
q-4 0 -7.5 1.5t-6.5 4.5q-1 1 -2.5 4t-1.5 8v330q0 3 1 6.5t3 5.5q3 3 6 4.5t8 1.5h36q4 0 7.5 -1.5t6.5 -4.5q1 -1 2.5 -5t1.5 -7v0zM694 540v-330q0 -4 -0.5 -7t-3.5 -5q-3 -3 -6 -4.5t-8 -1.5h-36q-4 0 -7.5 1.5t-6.5 4.5q-1 1 -2.5 4t-1.5 8v330q0 3 1 6.5t3 5.5
q3 3 6 4.5t8 1.5h36q4 0 7.5 -1.5t6.5 -4.5q3 -1 3.5 -5t0.5 -7v0zM768 126v542h-512v-542q0 -6 1 -12t3 -12q1 -4 3.5 -8t4.5 -6l4.5 -4.5l1.5 -1.5h476l1.5 1.5l4.5 4.5q1 1 3.5 5t4.5 9q1 6 2.5 12t1.5 12v0zM384 740h256l-28 68q-1 1 -4 2.5t-6 3.5h-180
q-3 -1 -5.5 -2.5t-4.5 -3.5zM914 722v-36q0 -4 -1 -7.5t-3 -6.5q-3 -1 -6 -2.5t-8 -1.5h-54v-542q0 -24 -7 -44.5t-21 -37.5q-13 -18 -29.5 -26t-34.5 -8h-476q-18 0 -34 7.5t-30 24.5q-13 16 -20.5 37t-7.5 45v544h-54q-4 0 -7.5 1t-6.5 3q-1 3 -2.5 6t-1.5 8v36q0 4 1 7.5
t3 6.5q3 1 6 2.5t8 1.5h176l40 96q4 10 12 19t20 17q10 7 21.5 10.5t22.5 3.5h184q10 0 21.5 -3t22.5 -11q12 -7 19.5 -16t12.5 -20l40 -96h176q4 0 7.5 -1t6.5 -3q1 -3 2.5 -6t1.5 -8v0z" />
  </g>

</svg>
