<?xml version="1.0" standalone="no"?>
<!DOCTYPE svg PUBLIC "-//W3C//DTD SVG 1.1//EN" "http://www.w3.org/Graphics/SVG/1.1/DTD/svg11.dtd" >
<svg xmlns="http://www.w3.org/2000/svg" xmlns:xlink="http://www.w3.org/1999/xlink" version="1.1" viewBox="0 -64 1024 1024">
  <g transform="matrix(1 0 0 -1 0 960)">
   <path fill="currentColor"
d="M431 112q21 -8 39.5 -12t35.5 -4q36 0 65 5.5t52 16.5q22 11 38.5 26.5t26.5 33.5q10 20 15.5 44t5.5 53q0 31 -5.5 55t-17.5 41q-15 25 -33.5 42t-41.5 26q-21 9 -54.5 13.5t-78.5 4.5q-19 0 -32.5 -1t-21.5 -4v-171l2 -144q0 -4 1.5 -10t3.5 -15v0zM424 514
q13 -3 27.5 -3.5t32.5 -0.5q46 0 81.5 8.5t58.5 25.5q24 18 35.5 47.5t11.5 72.5q0 29 -11 54.5t-34 46.5q-22 20 -56 29.5t-80 9.5q-15 0 -32 -1.5t-38 -5.5q0 -11 0.5 -21.5t1.5 -19.5q1 -33 2 -70.5t0 -78.5v-52v-23v-18v0zM135 37v49q13 3 22 4.5t16 3.5q21 2 37 6.5
t28 9.5q4 8 7 14.5t4 12.5q3 18 4.5 44t1.5 61l-2 266q-1 67 -2.5 121.5t-2.5 94.5q0 24 -1.5 38t-4.5 20q0 1 -1.5 2.5l-4.5 4.5q-5 3 -14 4.5t-23 3.5q-9 0 -23.5 2t-36.5 5l-4 43l141 4l202 8h25h2.5h4.5h4.5h3.5h2.5h8.5h11h11h40q24 0 49.5 -3.5t53.5 -11.5
q11 -3 23.5 -8.5t26.5 -12.5q16 -7 30 -17t25 -22q13 -13 21.5 -27t13.5 -30q6 -15 9 -31.5t3 -33.5q0 -19 -4.5 -36.5t-12.5 -33.5q-10 -15 -23 -29t-30 -27q-7 -4 -26.5 -15t-51.5 -26q46 -10 82 -29.5t60 -47.5t36.5 -60t12.5 -67q0 -20 -4 -42t-11 -45
q-6 -17 -15.5 -32.5t-22.5 -29.5q-18 -19 -36.5 -33.5t-38.5 -24.5q-19 -10 -47 -18t-61 -14q-23 -4 -49.5 -5.5t-57.5 0.5l-105 2q-23 0 -63 -1.5t-97 -4.5q-9 -1 -46 -2.5t-100 -3.5v0z" />
  </g>

</svg>
