<?xml version="1.0" standalone="no"?>
<!DOCTYPE svg PUBLIC "-//W3C//DTD SVG 1.1//EN" "http://www.w3.org/Graphics/SVG/1.1/DTD/svg11.dtd" >
<svg xmlns="http://www.w3.org/2000/svg" xmlns:xlink="http://www.w3.org/1999/xlink" version="1.1" viewBox="0 -64 1024 1024">
  <g transform="matrix(1 0 0 -1 0 960)">
   <path fill="currentColor"
d="M658 448q0 30 -10.5 55.5t-31.5 48.5q-22 21 -48 31.5t-56 10.5t-55.5 -10.5t-48.5 -31.5q-21 -22 -31.5 -48t-10.5 -56t10.5 -55.5t31.5 -48.5q22 -21 48 -31.5t56 -10.5t55.5 10.5t48.5 31.5q21 22 31.5 48t10.5 56v0zM950 510v-126q0 -4 -0.5 -7.5t-3.5 -6.5
q-1 -3 -4 -4.5t-8 -3.5l-104 -16q-6 -15 -12 -28t-12 -24q10 -13 25.5 -32.5t36.5 -45.5q3 -3 4.5 -7t1.5 -7q0 -4 -1.5 -7.5t-4.5 -6.5q-7 -10 -21 -25.5t-35 -36.5q-21 -19 -34.5 -29.5t-19.5 -10.5q-3 0 -7 1.5t-7 4.5l-80 62q-12 -7 -25 -12t-27 -10q-4 -39 -8.5 -65.5
t-7.5 -40.5q-1 -9 -6.5 -12.5t-13.5 -3.5h-128q-3 0 -7 0.5t-7 3.5t-4.5 6t-1.5 6l-16 106q-13 4 -26.5 9t-25.5 11l-80 -60q-3 -3 -6 -4.5t-8 -1.5q-4 0 -7.5 1.5t-6.5 4.5q-36 33 -59.5 57t-34.5 39q-3 3 -3.5 6t-0.5 8q0 3 0.5 6t3.5 6q4 6 11.5 16l16.5 22
q10 13 18 23.5t14 18.5q-7 13 -13 27.5t-11 28.5l-104 16q-4 0 -7 1.5t-5 4.5q-3 3 -3.5 6t-0.5 8v126q0 4 0.5 7.5t3.5 6.5q1 3 4 4.5t6 3.5l106 16q4 12 10 25t14 27q-12 16 -27 35.5t-35 42.5q-3 4 -4.5 7.5t-1.5 6.5t1.5 6t4.5 8q7 10 21 25t35 35q21 21 34.5 31.5
t19.5 10.5q3 0 7 -1.5t7 -4.5l80 -62q12 7 25 12t27 10q4 39 8.5 65.5t7.5 40.5q1 9 6.5 12.5t13.5 3.5h128q3 0 7 -0.5t7 -3.5t4.5 -6t1.5 -6l16 -106q13 -4 26.5 -9t25.5 -11l80 60q3 3 6 4.5t8 1.5q4 0 7.5 -1.5t6.5 -4.5q37 -34 61 -58.5t33 -39.5q3 -1 3.5 -4t0.5 -8
q0 -3 -0.5 -6t-3.5 -6q-4 -6 -11.5 -16l-16.5 -22q-10 -13 -18 -23.5t-14 -18.5q7 -13 13 -27t11 -29l104 -16q4 0 7 -1.5t5 -4.5q3 -3 3.5 -6t0.5 -8v0z" />
  </g>

</svg>
