<?xml version="1.0" encoding="utf-8"?>
<!-- Generator: Adobe Illustrator 18.1.1, SVG Export Plug-In . SVG Version: 6.00 Build 0)  -->
<svg version="1.1" id="Layer_1" xmlns="http://www.w3.org/2000/svg" xmlns:xlink="http://www.w3.org/1999/xlink" x="0px" y="0px"
	 viewBox="0 0 64 64" enable-background="new 0 0 64 64" xml:space="preserve">
<g transform="matrix(1 0 0 -1 0 960)">
	<path fill="currentColor" d="M45.8,910.9v2.2c0,0.2,0,0.3-0.1,0.5s-0.2,0.3-0.3,0.4c-0.1,0-0.2,0.1-0.4,0.2s-0.2,0.1-0.4,0.1H19.4c-0.1,0-0.2,0-0.4-0.1
		s-0.2-0.1-0.4-0.2c-0.1-0.1-0.2-0.2-0.3-0.4s-0.1-0.3-0.1-0.5v-2.2c0-0.2,0-0.3,0.1-0.5s0.2-0.3,0.3-0.4c0.1,0,0.2-0.1,0.4-0.2
		s0.2-0.1,0.4-0.1h25.2c0.1,0,0.2,0,0.4,0.1s0.2,0.1,0.4,0.2c0.1,0.1,0.2,0.2,0.3,0.4S45.8,910.7,45.8,910.9L45.8,910.9z M45.8,920
		v2.2c0,0.2,0,0.3-0.1,0.5s-0.2,0.3-0.3,0.4s-0.2,0.2-0.4,0.2s-0.2,0-0.4,0H19.4c-0.1,0-0.2,0-0.4,0s-0.2-0.1-0.4-0.2
		s-0.2-0.2-0.3-0.4s-0.1-0.3-0.1-0.5V920c0-0.2,0-0.3,0.1-0.5s0.2-0.3,0.3-0.4c0.1,0,0.2-0.1,0.4-0.2s0.2-0.1,0.4-0.1h25.2
		c0.1,0,0.2,0,0.4,0.1s0.2,0.1,0.4,0.2c0.1,0.1,0.2,0.2,0.3,0.4S45.8,919.8,45.8,920L45.8,920z M54.9,932.6V904
		c0-0.5-0.1-0.9-0.2-1.3s-0.4-0.7-0.8-1.1c-0.3-0.4-0.7-0.6-1.1-0.8s-0.9-0.2-1.4-0.2H12.6c-0.5,0-1,0.1-1.4,0.2s-0.8,0.4-1.1,0.8
		c-0.3,0.3-0.5,0.6-0.7,1s-0.3,0.8-0.3,1.3v48c0,0.5,0.1,0.9,0.2,1.3s0.4,0.7,0.8,1.1c0.3,0.4,0.7,0.6,1.1,0.8s0.9,0.2,1.4,0.2H32
		V936c0-0.5,0.1-0.9,0.2-1.3s0.4-0.7,0.8-1.1c0.3-0.4,0.6-0.6,1.1-0.8s0.9-0.2,1.3-0.2H54.9z M54.8,937.1H36.6v18.2
		c0.9-0.2,1.8-0.4,2.6-0.8s1.5-0.9,2.1-1.5l11.1-11.1c0.6-0.6,1.1-1.3,1.5-2.1S54.5,938.1,54.8,937.1L54.8,937.1z"/>
</g>
</svg>
