<?xml version="1.0" encoding="utf-8"?>
<!-- Generator: Adobe Illustrator 18.1.1, SVG Export Plug-In . SVG Version: 6.00 Build 0)  -->
<svg version="1.1" id="Layer_1" xmlns="http://www.w3.org/2000/svg" xmlns:xlink="http://www.w3.org/1999/xlink" x="0px" y="0px"
	 viewBox="0 0 64 64" enable-background="new 0 0 64 64" xml:space="preserve">
<g transform="matrix(1 0 0 -1 0 960)">
	<path fill="currentColor" d="M56.4,932.9v-30.6c0-0.5-0.1-1-0.3-1.4s-0.4-0.8-0.8-1.1c-0.3-0.4-0.7-0.7-1.2-0.8s-0.9-0.2-1.4-0.2H11.3
		c-0.5,0-1,0.1-1.4,0.2s-0.9,0.4-1.2,0.8c-0.3,0.3-0.6,0.7-0.8,1.1s-0.3,0.9-0.3,1.4v51.2c0,0.5,0.1,1,0.3,1.4s0.4,0.8,0.8,1.1
		c0.3,0.4,0.7,0.7,1.2,0.8s0.9,0.2,1.4,0.2H32v-20.6c0-0.5,0.1-1,0.3-1.4s0.4-0.8,0.8-1.1c0.3-0.4,0.7-0.7,1.2-0.8s0.9-0.2,1.4-0.2
		H56.4z M56.2,937.8H36.9v19.4c1-0.2,1.9-0.5,2.8-0.9s1.6-0.9,2.2-1.6l11.9-11.9c0.7-0.7,1.2-1.4,1.6-2.2S56,938.8,56.2,937.8
		L56.2,937.8z"/>
</g>
</svg>
