<?xml version="1.0" standalone="no"?>
<!DOCTYPE svg PUBLIC "-//W3C//DTD SVG 1.1//EN" "http://www.w3.org/Graphics/SVG/1.1/DTD/svg11.dtd" >
<svg xmlns="http://www.w3.org/2000/svg" xmlns:xlink="http://www.w3.org/1999/xlink" version="1.1" viewBox="0 -64 1024 1024">
  <g transform="matrix(1 0 0 -1 0 960)">
   <path fill="currentColor"
d="M732 284v-38q0 -3 -1.5 -6t-4.5 -6t-6 -4.5t-6 -1.5h-404q-3 0 -6 1.5t-6 4.5t-4.5 6t-1.5 6v38q0 3 1.5 6.5t4.5 5.5q3 3 6 4.5t6 1.5h404q3 0 6 -1.5t6 -4.5q3 -1 4.5 -5t1.5 -7v0zM732 430v-36q0 -4 -1.5 -7.5t-4.5 -6.5t-6 -4.5t-6 -1.5h-404q-3 0 -6 1.5t-6 4.5
t-4.5 6t-1.5 8v36q0 4 1.5 7t4.5 5q3 3 6 4.5t6 1.5h404q3 0 6 -1.5t6 -4.5q3 -1 4.5 -4t1.5 -8v0zM220 82h584v440h-238q-10 0 -20 3.5t-18 12.5q-7 7 -11.5 16.5t-4.5 21.5v238h-292v-732zM586 594h214q-3 9 -6 15t-6 9l-180 178q-3 4 -8.5 7.5t-13.5 6.5v-216zM878 576
v-512q0 -12 -4 -21t-12 -17q-7 -9 -17.5 -12.5t-22.5 -3.5h-620q-12 0 -22 3.5t-18 12.5q-7 7 -11.5 16.5t-4.5 21.5v768q0 12 4 21t12 17q7 9 17.5 12.5t22.5 3.5h364q12 0 24.5 -2t27.5 -8q13 -6 23.5 -13t18.5 -15l178 -178q9 -7 15.5 -18.5t12.5 -25.5q6 -13 9 -25.5
t3 -24.5v0z" />
  </g>

</svg>
