<?xml version="1.0" standalone="no"?>
<!DOCTYPE svg PUBLIC "-//W3C//DTD SVG 1.1//EN" "http://www.w3.org/Graphics/SVG/1.1/DTD/svg11.dtd" >
<svg xmlns="http://www.w3.org/2000/svg" xmlns:xlink="http://www.w3.org/1999/xlink" version="1.1" viewBox="0 -64 1024 1024">
  <g transform="matrix(1 0 0 -1 0 960)">
   <path fill="currentColor"
d="M897 400q0 8 -6.5 12t-18.5 4h-509q-10 0 -20 -2.5t-21 -8.5q-10 -5 -19 -10.5t-14 -13.5l-139 -171q-4 -5 -5.5 -9t-1.5 -8q0 -8 5.5 -13t18.5 -5h510q9 0 19.5 2.5t21.5 8.5q10 5 18 11.5t15 12.5l137 171q4 5 6.5 10t2.5 9v0zM363 476h358v75q0 10 -3 17.5t-9 14.5
q-7 7 -15 9.5t-17 2.5h-270q-10 0 -18 4t-14 10q-7 7 -9.5 15t-2.5 17v30q0 9 -4 17t-10 15q-7 6 -15 10t-17 4h-150q-9 0 -17 -4t-14 -10q-7 -7 -10.5 -15t-3.5 -17v-399l119 148q11 11 25 21.5t30 18.5q17 8 34 12t33 4v0zM957 400q0 -14 -5.5 -28.5t-15.5 -27.5
l-139 -171q-11 -13 -24.5 -22.5t-30.5 -17.5q-17 -9 -33 -13.5t-32 -4.5h-510q-22 0 -40.5 8t-32.5 24q-16 16 -24 34.5t-8 39.5v450q0 21 8 39.5t24 34.5q14 16 32.5 23.5t40.5 7.5h150q21 0 39.5 -7.5t34.5 -23.5t23.5 -34.5t7.5 -39.5v-14h255q21 0 39.5 -8t34.5 -24
t24 -34.5t8 -39.5v-75h89q12 0 24 -3t22 -8q11 -6 18.5 -14.5t13.5 -18.5q4 -8 5.5 -16t1.5 -16v0z" />
  </g>

</svg>
