<?xml version="1.0" standalone="no"?>
<!DOCTYPE svg PUBLIC "-//W3C//DTD SVG 1.1//EN" "http://www.w3.org/Graphics/SVG/1.1/DTD/svg11.dtd" >
<svg xmlns="http://www.w3.org/2000/svg" xmlns:xlink="http://www.w3.org/1999/xlink" version="1.1" viewBox="0 -64 1024 1024">
  <g transform="matrix(1 0 0 -1 0 960)">
   <path fill="currentColor"
d="M943 390q0 -7 -4 -15t-10 -17l-159 -185q-9 -11 -23 -21.5t-33 -18.5q-18 -9 -34.5 -13.5t-32.5 -4.5h-509q-8 0 -15.5 1.5t-13.5 5.5q-6 3 -10 8t-4 12q0 8 4 16t12 15l157 185q10 13 24.5 23t31.5 19q18 8 35.5 12t32.5 4h510q8 0 15 -1.5t13 -3.5q7 -4 10 -9.5
t3 -11.5v0zM783 551v-75h-391q-22 0 -45 -5.5t-48 -17.5q-23 -11 -43 -25t-34 -30l-156 -186l-4 -3v2.5v4.5v2.5v2.5v450q0 21 8 39.5t24 34.5q14 16 32.5 23.5t40.5 7.5h150q21 0 39.5 -7.5t34.5 -23.5t23.5 -34.5t7.5 -39.5v-14h255q21 0 39.5 -8t34.5 -24t24 -34.5
t8 -39.5v0z" />
  </g>

</svg>
