<?xml version="1.0" standalone="no"?>
<!DOCTYPE svg PUBLIC "-//W3C//DTD SVG 1.1//EN" "http://www.w3.org/Graphics/SVG/1.1/DTD/svg11.dtd" >
<svg xmlns="http://www.w3.org/2000/svg" xmlns:xlink="http://www.w3.org/1999/xlink" version="1.1" viewBox="0 -64 1024 1024">
  <g transform="matrix(1 0 0 -1 0 960)">
   <path fill="currentColor"
d="M449 130q0 -43 -31 -73.5t-74 -30.5t-74.5 30.5t-31.5 73.5q0 44 31.5 74.5t74.5 30.5t74 -30.5t31 -74.5v0zM449 448q0 -43 -31 -74t-74 -31t-74.5 31t-31.5 74t31.5 74t74.5 31t74 -31t31 -74v0zM449 766q0 -44 -31 -74.5t-74 -30.5t-74.5 30.5t-31.5 74.5
q0 43 31.5 73.5t74.5 30.5t74 -30.5t31 -73.5v0zM786 130q0 -43 -31.5 -73.5t-74.5 -30.5t-74 30.5t-31 73.5q0 44 31 74.5t74 30.5t74.5 -30.5t31.5 -74.5v0zM786 448q0 -43 -31.5 -74t-74.5 -31t-74 31t-31 74t31 74t74 31t74.5 -31t31.5 -74v0zM786 766
q0 -44 -31.5 -74.5t-74.5 -30.5t-74 30.5t-31 74.5q0 43 31 73.5t74 30.5t74.5 -30.5t31.5 -73.5v0z" />
  </g>

</svg>
