<?xml version="1.0" standalone="no"?>
<!DOCTYPE svg PUBLIC "-//W3C//DTD SVG 1.1//EN" "http://www.w3.org/Graphics/SVG/1.1/DTD/svg11.dtd" >
<svg xmlns="http://www.w3.org/2000/svg" xmlns:xlink="http://www.w3.org/1999/xlink" version="1.1" viewBox="0 -64 1024 1024">
  <g transform="matrix(1 0 0 -1 0 960)">
   <path fill="currentColor"
d="M506 890q46 0 88.5 -7.5t81.5 -23t74.5 -39t68.5 -55.5t57.5 -67t41.5 -73.5t26 -81t10 -87.5q0 -46 -7.5 -88.5t-23.5 -82t-40 -75t-56 -68.5t-67 -58t-73.5 -42t-81 -26t-87.5 -10q-46 0 -88.5 7.5t-81.5 23.5t-75 40t-68 56q-34 32 -58.5 67t-41.5 73.5t-26 81
t-9 87.5q-1 46 6.5 88.5t23 81.5t39.5 75t56 68q32 34 68 58.5t74.5 41.5t81 26t87.5 9v0zM505 180q14 0 26 4t20 13q9 10 14 21t5 24q0 15 -3.5 27t-13.5 21q-8 9 -20.5 13t-26.5 4h-0.5h-0.5q-15 0 -26 -4t-19 -12q-10 -9 -15 -20t-6 -25q0 -15 4.5 -26.5t14.5 -20.5
q8 -9 19.5 -14t25.5 -5h0.5h0.5h1zM664 495q13 15 18.5 33.5t5.5 41.5q0 36 -12.5 64t-37.5 46q-26 19 -58 27.5t-72 8.5q-31 0 -56 -6t-43 -18q-34 -20 -51 -55t-18 -86v-2v-2h52h52v2v2q0 13 4 26t11 27q9 11 22 16.5t31 5.5q20 0 32.5 -4.5t18.5 -14.5q7 -9 11 -19.5
t4 -23.5q0 -8 -4 -17.5t-11 -19.5q-5 -6 -10 -11t-11 -8l-3 -2l-3 -2q-2 -3 -5.5 -5.5t-9.5 -5.5q-4 -3 -9 -7t-9 -8q-6 -3 -10.5 -7t-10.5 -8t-10 -8.5t-7 -8.5q-5 -10 -9.5 -28.5t-7.5 -46.5v-3.5v-3.5h52.5h52.5v1.5v1.5q0 6 0.5 13t3.5 14q3 9 9 18t17 17l13 8.5l13 8.5
q23 17 36 28.5t19 20.5v0z" />
  </g>

</svg>
