<?xml version="1.0" standalone="no"?>
<!DOCTYPE svg PUBLIC "-//W3C//DTD SVG 1.1//EN" "http://www.w3.org/Graphics/SVG/1.1/DTD/svg11.dtd" >
<svg xmlns="http://www.w3.org/2000/svg" xmlns:xlink="http://www.w3.org/1999/xlink" version="1.1" viewBox="0 -64 1024 1024">
  <g transform="matrix(1 0 0 -1 0 960)">
   <path fill="currentColor"
d="M821 397v-258q0 -7 -2.5 -13t-8.5 -10q-4 -5 -10.5 -8t-13.5 -3h-205v206h-138v-206h-205q-7 0 -13.5 2.5t-10.5 8.5q-6 4 -8.5 10t-2.5 13v258v0h1v2v0l308 255l307 -255l1 -1l1 -1v0zM939 433l-31 -39q-3 -3 -6 -4.5t-6 -1.5h-1q-5 0 -7.5 1t-4.5 3l-371 309l-371 -309
q-3 -3 -6 -3.5t-7 -0.5q-3 0 -6 1.5t-6 4.5l-31 39q-3 3 -3.5 6t-0.5 7t1.5 7t3.5 4l385 321q8 7 19 11t22 4t22 -4t19 -11l130 -109v105q0 3 1 6.5t4 4.5q3 3 6 4.5t7 1.5h102q4 0 7 -1.5t6 -3.5t4 -5.5t1 -6.5v-219l117 -98q2 -1 3.5 -4t1.5 -7t-0.5 -7t-2.5 -6h-1z" />
  </g>

</svg>
