<?xml version="1.0" encoding="utf-8"?>
<!-- Generator: Adobe Illustrator 18.1.1, SVG Export Plug-In . SVG Version: 6.00 Build 0)  -->
<svg version="1.1" id="Layer_1" xmlns="http://www.w3.org/2000/svg" xmlns:xlink="http://www.w3.org/1999/xlink" x="0px" y="0px"
	 viewBox="0 0 64 64" enable-background="new 0 0 64 64" xml:space="preserve">
<g transform="matrix(1 0 0 -1 0 960)">
	<path fill="currentColor" d="M22.1,938.9c0-0.8-0.1-1.6-0.4-2.2c-0.3-0.7-0.7-1.4-1.3-1.9c-0.5-0.5-1.2-0.9-1.9-1.3s-1.5-0.4-2.3-0.4s-1.6,0.1-2.2,0.4
		c-0.7,0.3-1.4,0.7-1.9,1.3c-0.5,0.5-0.9,1.2-1.3,1.9c-0.3,0.7-0.4,1.5-0.4,2.2c0,0.8,0.1,1.7,0.4,2.3c0.3,0.7,0.7,1.4,1.3,1.9
		c0.5,0.6,1.2,1.1,1.9,1.4c0.7,0.3,1.5,0.4,2.2,0.4c0.8,0,1.7-0.1,2.3-0.4c0.7-0.3,1.4-0.7,1.9-1.4c0.5-0.5,1.1-1.2,1.3-1.9
		C21.8,940.6,22.1,939.7,22.1,938.9L22.1,938.9z M53.5,927.1v-13.9H10.2v6.1l9.9,9.8l4.8-5l15.8,15.9L53.5,927.1z M56.4,948.9H7.2
		c-0.2,0-0.3,0-0.4-0.1c-0.1-0.1-0.2-0.2-0.2-0.3c-0.1-0.1-0.2-0.2-0.2-0.3c0-0.1-0.1-0.2-0.1-0.3v-37.4c0-0.1,0-0.2,0.1-0.3
		c0.1-0.1,0.1-0.2,0.2-0.3c0-0.1,0.1-0.2,0.2-0.3c0.1-0.1,0.3-0.1,0.4-0.1h49.2c0.2,0,0.3,0,0.4,0.1c0.1,0.1,0.2,0.2,0.2,0.3
		c0.1,0.1,0.2,0.2,0.2,0.3c0,0.1,0.1,0.2,0.1,0.3v37.4c0,0.1,0,0.2-0.1,0.3c-0.1,0.1-0.1,0.2-0.2,0.3c0,0.1-0.1,0.2-0.2,0.3
		S56.5,948.9,56.4,948.9L56.4,948.9z M61.4,947.8v-37.4c0-0.7-0.1-1.4-0.3-1.9s-0.6-1.1-1.2-1.5c-0.4-0.5-0.9-0.9-1.6-1.2
		c-0.6-0.2-1.3-0.3-1.9-0.3H7.2c-0.7,0-1.4,0.1-1.9,0.3c-0.6,0.2-1.2,0.6-1.6,1.2c-0.5,0.4-0.9,0.9-1.2,1.5s-0.3,1.2-0.3,1.9v37.4
		c0,0.7,0.1,1.4,0.3,1.9c0.2,0.5,0.6,1.1,1.2,1.5c0.4,0.5,0.9,0.9,1.6,1.2c0.6,0.2,1.3,0.3,1.9,0.3h49.2c0.7,0,1.4-0.1,1.9-0.3
		c0.6-0.2,1.2-0.6,1.6-1.1c0.5-0.5,0.9-1.1,1.2-1.6C61.3,949.2,61.4,948.5,61.4,947.8L61.4,947.8z"/>
</g>
</svg>
