<?xml version="1.0" standalone="no"?>
<!DOCTYPE svg PUBLIC "-//W3C//DTD SVG 1.1//EN" "http://www.w3.org/Graphics/SVG/1.1/DTD/svg11.dtd" >
<svg xmlns="http://www.w3.org/2000/svg" xmlns:xlink="http://www.w3.org/1999/xlink" version="1.1" viewBox="0 -64 1024 1024">
  <g transform="matrix(1 0 0 -1 0 960)">
   <path fill="currentColor"
d="M238 37l10 45q0 2 10.5 4.5t30.5 7.5t35 10t27 10q7 10 12.5 24t7.5 31l15 75l38 178q1 11 3.5 22t3.5 23q3 11 5.5 19.5t4.5 15.5q1 7 3.5 13t3.5 12q2 5 2.5 9.5t1.5 7.5q1 2 1.5 3.5l0.5 1.5l15 85l9 33l11 73l6 27v20q-11 6 -30.5 10t-48.5 5q-7 0 -12 1t-6 1l9 55
l171 -8h19h18q18 0 47 1t69 3q9 1 17.5 1.5t18.5 2.5h14.5h4.5q0 -5 -1 -10t-1 -9q-3 -9 -4.5 -16t-3.5 -12q-15 -6 -29.5 -10t-28.5 -7q-17 -4 -30.5 -8.5t-23.5 -8.5q-3 -8 -6.5 -19.5t-6.5 -27.5q-3 -11 -4.5 -22t-3.5 -21q-11 -53 -19.5 -94t-15.5 -71l-32 -167l-21 -84
l-22 -126l-8 -24q0 -2 0.5 -5.5t1.5 -7.5q17 -5 32.5 -7.5t31.5 -4.5q10 -1 18.5 -2.5t16.5 -2.5q-1 -9 -1.5 -16.5t-1.5 -15.5q-3 -9 -4.5 -14.5t-1.5 -8.5h-8h-5h-11.5h-11.5h-5h-10q-4 2 -23.5 4.5t-52.5 5.5l-107 2q-10 0 -33.5 -1.5t-58.5 -4.5q-20 -3 -33.5 -3.5
t-19.5 -2.5v0z" />
  </g>

</svg>
