<?xml version="1.0" standalone="no"?>
<!DOCTYPE svg PUBLIC "-//W3C//DTD SVG 1.1//EN" "http://www.w3.org/Graphics/SVG/1.1/DTD/svg11.dtd" >
<svg xmlns="http://www.w3.org/2000/svg" xmlns:xlink="http://www.w3.org/1999/xlink" version="1.1" viewBox="0 -64 1024 1024">
  <g transform="matrix(1 0 0 -1 0 960)">
   <path fill="currentColor"
d="M285 128q0 -17 -6 -31t-19 -24q-11 -11 -26 -16t-33 -5q-24 0 -43 7.5t-34 22.5l26 38q11 -10 22.5 -15t24.5 -5q7 0 12 2t9 5q6 3 8.5 7.5t2.5 10.5q0 15 -11.5 21t-34.5 4l-12 25q2 2 5.5 7t7.5 13q6 7 11 12.5t10 10.5q3 4 7.5 8.5t7.5 8.5v1q-3 0 -9 -0.5t-13 -0.5
h-12.5h-8.5v-23h-47v66h147v-39l-42 -51q12 -2 21 -7.5t15 -13.5q7 -8 10.5 -17.5t3.5 -21.5v0zM285 405v-70h-159q-1 8 -2 14t-1 9q0 12 3 22.5t7 19.5q5 9 11.5 16.5t13.5 12.5q7 6 15 11.5t15 10.5t13.5 9.5t10.5 9.5q6 4 8.5 9.5t2.5 10.5q0 6 -2 10t-4 7q-4 3 -8.5 4.5
t-10.5 1.5q-9 0 -18 -7t-17 -19l-37 26q6 11 13 20.5t18 14.5q10 6 22.5 9.5t25.5 3.5q15 0 28.5 -4.5t25.5 -14.5q10 -9 15.5 -21t5.5 -28q0 -11 -3.5 -21t-11.5 -19q-7 -10 -15 -17t-18 -11q-9 -6 -17.5 -12t-16.5 -11q-7 -6 -11 -12t-4 -12h56v27h46zM908 264v-85
q0 -2 -1.5 -4.5t-3.5 -4.5t-4.5 -3.5t-4.5 -1.5h-538q-2 0 -4.5 1.5t-4.5 3.5q-3 2 -4 4.5t-1 4.5v85q0 4 1 6.5t4 4.5q2 1 4.5 2t4.5 1h538q2 0 4.5 -1t4.5 -2q2 -2 3.5 -4.5t1.5 -6.5v0zM286 661v-43h-148v43h48v22.5v31.5v31.5v21.5v6h-2q-1 -3 -6.5 -10t-14.5 -15
l-31 34l60 56h47v-178h47zM908 490v-84q0 -3 -1.5 -5.5t-3.5 -5.5q-2 -2 -4.5 -3t-4.5 -1h-538q-2 0 -4.5 1t-4.5 3q-3 3 -4 5.5t-1 5.5v84q0 3 1 5.5t4 5.5q2 2 4.5 3t4.5 1h538q2 0 4.5 -1t4.5 -3q2 -3 3.5 -5.5t1.5 -5.5v0zM908 717v-85q0 -4 -1.5 -6.5t-3.5 -4.5
q-2 -1 -4.5 -2t-4.5 -1h-538q-2 0 -4.5 1t-4.5 2q-3 2 -4 4.5t-1 6.5v85q0 2 1 4.5t4 4.5q2 2 4.5 3.5t4.5 1.5h538q2 0 4.5 -1.5t4.5 -3.5t3.5 -4.5t1.5 -4.5v0z" />
  </g>

</svg>
