<?xml version="1.0" standalone="no"?>
<!DOCTYPE svg PUBLIC "-//W3C//DTD SVG 1.1//EN" "http://www.w3.org/Graphics/SVG/1.1/DTD/svg11.dtd" >
<svg xmlns="http://www.w3.org/2000/svg" xmlns:xlink="http://www.w3.org/1999/xlink" version="1.1" viewBox="0 -64 1024 1024">
  <g transform="matrix(1 0 0 -1 0 960)">
   <path fill="currentColor"
d="M271 207q0 -19 -7 -34.5t-19 -29.5q-14 -13 -30 -19.5t-34 -6.5q-19 0 -35 6.5t-30 19.5q-13 14 -19.5 29.5t-6.5 34.5t6.5 35t19.5 30q14 12 30 19t35 7q18 0 34 -7t30 -19q12 -14 19 -30t7 -35v0zM271 448q0 -19 -7 -35t-19 -29q-14 -14 -30 -20.5t-34 -6.5
q-19 0 -35 6.5t-30 20.5q-13 13 -19.5 29t-6.5 35t6.5 35t19.5 29q14 14 30 20.5t35 6.5q18 0 34 -6.5t30 -20.5q12 -13 19 -29t7 -35v0zM934 252v-91q0 -2 -1.5 -4.5t-3.5 -5.5q-3 -2 -5 -3.5t-5 -1.5h-573q-3 0 -5.5 1.5t-4.5 3.5q-3 3 -4 5.5t-1 4.5v91q0 4 1 6.5t4 4.5
q2 2 4.5 3t5.5 1h573q3 0 5 -1t5 -3q2 -2 3.5 -4.5t1.5 -6.5v0zM271 689q0 -19 -7 -35t-19 -30q-14 -12 -30 -19t-34 -7q-19 0 -35 7t-30 19q-13 14 -19.5 30t-6.5 35t6.5 34.5t19.5 29.5q14 13 30 19.5t35 6.5q18 0 34 -6.5t30 -19.5q12 -14 19 -29.5t7 -34.5v0zM934 492
v-88q0 -4 -1.5 -7t-3.5 -5q-3 -3 -5 -4t-5 -1h-573q-3 0 -5.5 1t-4.5 4q-3 2 -4 5t-1 7v88q0 4 1 7t4 5q2 3 4.5 4t5.5 1h573q3 0 5 -1t5 -4q2 -2 3.5 -5t1.5 -7v0zM934 735v-91q0 -4 -1.5 -6.5t-3.5 -4.5q-3 -2 -5 -3t-5 -1h-573q-3 0 -5.5 1t-4.5 3q-3 2 -4 4.5t-1 6.5v91
q0 2 1 4.5t4 5.5q2 2 4.5 3.5t5.5 1.5h573q3 0 5 -1.5t5 -3.5q2 -3 3.5 -5.5t1.5 -4.5v0z" />
  </g>

</svg>
