<?xml version="1.0" standalone="no"?>
<!DOCTYPE svg PUBLIC "-//W3C//DTD SVG 1.1//EN" "http://www.w3.org/Graphics/SVG/1.1/DTD/svg11.dtd" >
<svg xmlns="http://www.w3.org/2000/svg" xmlns:xlink="http://www.w3.org/1999/xlink" version="1.1" viewBox="0 -64 1024 1024">
  <g transform="matrix(1 0 0 -1 0 960)">
   <path fill="currentColor"
d="M515 911q-57 0 -107.5 -21.5t-88 -59.5t-59.5 -88t-22 -108v-158q0 -1 -1 -3t-3 -2q-11 -4 -20.5 -7t-17.5 -7q-10 -3 -16.5 -13t-6.5 -21v-363q0 -11 6.5 -20.5t16.5 -13.5q38 -16 77.5 -27t79.5 -19t80.5 -11.5t81.5 -3.5t82 3.5t80.5 11.5t79 19t77.5 27
q10 4 16.5 13.5t6.5 20.5v363q0 11 -6.5 21t-16.5 13q-8 4 -17.5 7t-20.5 7q-2 0 -3 2t-1 3v158q0 58 -22 108t-59.5 88t-88 59.5t-107.5 21.5v0zM440 312q0 32 22 54t53 22t53 -22t22 -54q0 -20 -10.5 -37t-26.5 -26v-125q0 -16 -11 -27t-27 -11t-27 11t-11 27v125
q-16 9 -26.5 26t-10.5 37v0zM697 634v-136q-45 10 -90.5 14.5t-91.5 4.5t-91.5 -4.5t-90.5 -14.5v136q0 76 53.5 129t128.5 53t128.5 -53t53.5 -129v0z" />
  </g>

</svg>
