<?xml version="1.0" standalone="no"?>
<!DOCTYPE svg PUBLIC "-//W3C//DTD SVG 1.1//EN" "http://www.w3.org/Graphics/SVG/1.1/DTD/svg11.dtd" >
<svg xmlns="http://www.w3.org/2000/svg" xmlns:xlink="http://www.w3.org/1999/xlink" version="1.1" viewBox="0 -64 1024 1024">
  <g transform="matrix(1 0 0 -1 0 960)">
   <path fill="currentColor"
d="M962 573v-399q0 -16 -5.5 -30t-17.5 -26t-26.5 -17.5t-31.5 -5.5h-738q-17 0 -31.5 5.5t-26.5 17.5t-17.5 26t-5.5 30v399q11 -12 23.5 -22.5t27.5 -21.5q91 -62 153 -104.5t97 -67.5q14 -11 25.5 -19.5t19.5 -13.5q10 -6 21.5 -12t26.5 -13q16 -5 29.5 -8.5t26.5 -3.5v0
q13 0 26.5 3.5t29.5 8.5q15 7 26.5 13t21.5 12q8 5 19.5 13.5t25.5 19.5q44 30 106 73.5t144 98.5q15 11 27.5 21.5t23.5 22.5v0zM962 721q0 -20 -6.5 -38.5t-18.5 -37.5q-11 -18 -27 -33t-34 -28q-94 -66 -153 -107t-83 -57q-1 -1 -7 -5t-14 -11q-8 -5 -14.5 -10t-11.5 -9
q-5 -3 -12 -6.5t-15 -9.5q-7 -4 -14 -7.5t-14 -6.5q-8 -1 -13.5 -2t-12.5 -1v0q-7 0 -12.5 1t-13.5 2q-7 3 -14 6.5t-14 7.5q-8 6 -15 9.5t-12 6.5q-5 4 -11.5 9t-14.5 10q-8 7 -14 11t-7 5q-24 16 -57 39.5t-75 52.5q-44 30 -69.5 47.5t-34.5 24.5q-16 10 -30.5 24.5
t-27.5 33.5q-14 18 -21 35t-7 33q0 20 5.5 36t15.5 29q11 13 25.5 20t34.5 7h738q17 0 31 -6.5t25 -18.5q12 -12 18.5 -25.5t6.5 -30.5v0z" />
  </g>

</svg>
