<?xml version="1.0" standalone="no"?>
<!DOCTYPE svg PUBLIC "-//W3C//DTD SVG 1.1//EN" "http://www.w3.org/Graphics/SVG/1.1/DTD/svg11.dtd" >
<svg xmlns="http://www.w3.org/2000/svg" xmlns:xlink="http://www.w3.org/1999/xlink" version="1.1" viewBox="0 -64 1024 1024">
  <g transform="matrix(1 0 0 -1 0 960)">
   <path fill="currentColor"
d="M750 448q0 -10 -4.5 -18t-13.5 -14l-312 -182q-4 -3 -8.5 -4.5t-9.5 -1.5q-4 0 -8.5 1.5t-9.5 4.5q-4 3 -11 12t-7 20v364q0 10 4.5 18.5t13.5 13.5q9 6 18 6t18 -6l312 -182q9 -6 13.5 -13.5t4.5 -18.5v0zM822 448q0 42 -10 81t-30 75q-21 36 -49.5 64.5t-64.5 49.5
q-36 19 -75 29.5t-81 10.5t-81 -10t-75 -30q-36 -21 -64.5 -49.5t-49.5 -64.5q-19 -36 -29.5 -75t-10.5 -81t10 -81t30 -75q21 -36 49.5 -64.5t64.5 -49.5q36 -19 75 -29.5t81 -10.5t81 10t75 30q36 21 64.5 49.5t49.5 64.5q19 36 29.5 75t10.5 81v0zM950 448
q0 -60 -14 -115t-44 -105q-30 -51 -69.5 -90.5t-90.5 -69.5q-49 -30 -104.5 -44t-115.5 -14t-115 14t-105 44q-51 30 -90.5 69.5t-69.5 90.5q-30 49 -44 104.5t-14 115.5t14 115t44 105q30 51 69.5 90.5t90.5 69.5q49 30 104.5 44t115.5 14t115 -14t105 -44
q51 -30 90.5 -69.5t69.5 -90.5q30 -49 44 -104.5t14 -115.5v0z" />
  </g>

</svg>
