<?xml version="1.0" standalone="no"?>
<!DOCTYPE svg PUBLIC "-//W3C//DTD SVG 1.1//EN" "http://www.w3.org/Graphics/SVG/1.1/DTD/svg11.dtd" >
<svg xmlns="http://www.w3.org/2000/svg" xmlns:xlink="http://www.w3.org/1999/xlink" version="1.1" viewBox="0 -64 1024 1024">
  <g transform="matrix(1 0 0 -1 0 960)">
   <path fill="currentColor"
d="M62 448q0 19 10 35q77 118 191 186t249 68q45 0 90 -8l28 48q5 8 14 8q2 0 9 -3q6 -3 15 -7q9 -5 17 -10q7 -4 16 -9q8 -5 9 -6q8 -5 8 -13v-5q-53 -94 -158 -284l-159 -285l-25 -45q-5 -8 -14 -8q-6 0 -67 36q-8 5 -8 14q0 6 22 43q-72 33 -132 87q-61 54 -105 123
q-10 16 -10 35v0zM126 448q84 -130 215 -188l39 70q-44 32 -68 80q-25 48 -25 102q0 61 31 113q-115 -59 -192 -177v0zM359 512q0 -10 7 -17t17 -7t18 7q7 7 7 17q0 43 30 74q31 31 74 31q10 0 17 7t7 17t-7 17t-17 7q-63 0 -108 -45t-45 -108v0zM512 159l37 66
q107 9 197 69q91 59 152 154q-58 90 -142 148l32 56q47 -32 91 -77t73 -92q10 -18 10 -35q0 -18 -10 -35q-20 -32 -55 -73q-75 -86 -174 -134q-100 -47 -211 -47v0zM592 302l141 252q4 -22 4 -42q0 -70 -40 -127q-39 -58 -105 -83v0z" />
  </g>

</svg>
