<?xml version="1.0" standalone="no"?>
<!DOCTYPE svg PUBLIC "-//W3C//DTD SVG 1.1//EN" "http://www.w3.org/Graphics/SVG/1.1/DTD/svg11.dtd" >
<svg xmlns="http://www.w3.org/2000/svg" xmlns:xlink="http://www.w3.org/1999/xlink" version="1.1" viewBox="0 -64 1024 1024">
  <g transform="matrix(1 0 0 -1 0 960)">
   <path fill="currentColor"
d="M704 650q-3 -4 -7 -6.5t-7 -2.5h-113v-627q0 -4 -1.5 -6.5t-3.5 -4.5q-3 -2 -6 -3.5t-7 -1.5h-94q-4 0 -7 1.5t-6 3.5q-2 2 -3.5 4.5t-1.5 6.5v627h-113q-5 0 -8 2.5t-6 6.5q-1 5 -0.5 9.5t4.5 8.5l176 193q1 3 4.5 4t5.5 1q4 0 7 -1t6 -4l177 -193q4 -4 4.5 -8.5
t-0.5 -9.5v0z" />
  </g>

</svg>
