<?xml version="1.0" standalone="no"?>
<!DOCTYPE svg PUBLIC "-//W3C//DTD SVG 1.1//EN" "http://www.w3.org/Graphics/SVG/1.1/DTD/svg11.dtd" >
<svg xmlns="http://www.w3.org/2000/svg" xmlns:xlink="http://www.w3.org/1999/xlink" version="1.1" viewBox="0 -64 1024 1024">
  <g transform="matrix(1 0 0 -1 0 960)">
   <path fill="currentColor"
d="M767 264q0 14 -4.5 27t-14.5 24q-10 12 -21.5 17.5t-24.5 5.5q-12 0 -21 -3.5t-16 -11.5q-6 -8 -9 -18.5t-3 -23.5t3.5 -23t11.5 -19t19.5 -13t26.5 -4q11 0 20 2.5t17 8.5q9 7 12.5 14.5t3.5 16.5v0zM498 209q0 -4 -1 -6.5t-4 -4.5l-140 -141q-2 -2 -4.5 -3.5t-6.5 -1.5
q-2 0 -4.5 1.5t-4.5 3.5l-142 141q-4 3 -4.5 7t1.5 8q2 5 5.5 7t7.5 2h85v608q0 3 1 5.5t3 3.5q2 2 4.5 3.5t5.5 1.5h85q3 0 5.5 -1.5t4.5 -3.5q2 -1 3 -3.5t1 -5.5v-608h85q3 0 5.5 -1t3.5 -3q3 -3 4 -5t1 -4v0zM829 238q0 -14 -1.5 -27t-4.5 -26q-3 -14 -7.5 -26.5
t-9.5 -24.5q-7 -11 -14.5 -21.5t-16.5 -19.5q-8 -10 -19.5 -17t-24.5 -13q-12 -5 -26 -8t-29 -3q-14 0 -26 2.5t-22 5.5q-6 1 -10.5 3t-8.5 3l17 50q4 -1 7.5 -2.5t6.5 -2.5q8 -2 16.5 -4t16.5 -2q18 0 33 7t27 19q10 13 18 29t11 36h-1q-5 -6 -11.5 -9.5t-15.5 -7.5
q-9 -3 -18.5 -4.5t-19.5 -1.5q-23 0 -42 8t-34 23q-15 16 -22 35t-7 42t8 43t23 36q16 15 36 23t44 8q28 0 50.5 -10.5t40.5 -31.5t27 -48.5t9 -62.5v0zM816 555v-50h-207v50h73v191v3.5v4.5q1 2 1 4v4v6h-1l-3 -5q-2 -2 -4.5 -5.5t-6.5 -8.5l-28 -24l-37 37l85 82h54v-289
h74z" />
  </g>

</svg>
