<?xml version="1.0" standalone="no"?>
<!DOCTYPE svg PUBLIC "-//W3C//DTD SVG 1.1//EN" "http://www.w3.org/Graphics/SVG/1.1/DTD/svg11.dtd" >
<svg xmlns="http://www.w3.org/2000/svg" xmlns:xlink="http://www.w3.org/1999/xlink" version="1.1" viewBox="0 -64 1024 1024">
  <g transform="matrix(1 0 0 -1 0 960)">
   <path fill="currentColor"
d="M704 246q1 -5 0.5 -9.5t-4.5 -8.5l-176 -193q-1 -3 -4.5 -4t-5.5 -1q-4 0 -7 1t-6 4l-177 193q-4 4 -4.5 8.5t0.5 9.5q3 4 7 6.5t7 2.5h113v627q0 4 1.5 6.5t3.5 4.5q3 2 6 3.5t7 1.5h94q4 0 7 -1.5t6 -3.5q2 -2 3.5 -4.5t1.5 -6.5v-627h113q5 0 8 -2.5t6 -6.5v0z" />
  </g>

</svg>
