<?xml version="1.0" standalone="no"?>
<!DOCTYPE svg PUBLIC "-//W3C//DTD SVG 1.1//EN" "http://www.w3.org/Graphics/SVG/1.1/DTD/svg11.dtd" >
<svg xmlns="http://www.w3.org/2000/svg" xmlns:xlink="http://www.w3.org/1999/xlink" version="1.1" viewBox="0 -64 1024 1024">
  <g transform="matrix(1 0 0 -1 0 960)">
   <path fill="currentColor"
d="M512 641q0 20 -7.5 37t-20.5 32q-14 13 -31.5 20.5t-36.5 7.5q-20 0 -37 -7.5t-32 -20.5q-14 -15 -21 -32t-7 -37q0 -10 2.5 -20.5t6.5 -21.5q-9 5 -19.5 7t-21.5 2q-21 0 -37.5 -7t-30.5 -21q-15 -13 -21.5 -30t-6.5 -37q0 -21 6.5 -38t21.5 -31q14 -14 30.5 -21
t37.5 -7q20 0 37 7t32 21q13 14 20.5 31t7.5 38q0 11 -2.5 20.5t-8.5 19.5q11 -3 21.5 -5.5t21.5 -2.5q19 0 36.5 6.5t31.5 21.5q13 14 20.5 30.5t7.5 37.5v0zM940 288q0 -5 -6.5 -13t-18.5 -20q-12 -14 -21 -19.5t-12 -5.5t-6 1.5t-9 5.5q-5 4 -9.5 8t-9.5 10q-4 4 -8.5 9
t-10.5 10q-6 7 -8.5 10t-4.5 4l-47 -49l111 -111q6 -7 10 -15.5t4 -17.5q0 -11 -5 -21.5t-15 -19.5q-10 -10 -19.5 -14.5t-20.5 -4.5t-20 3t-15 11l-338 336q-43 -33 -89 -49t-93 -16q-41 0 -74.5 13t-59.5 38q-25 26 -38 59t-13 74q0 40 12 79t35 78q24 39 55.5 70t69.5 55
q38 23 77.5 35t79.5 12q41 0 74.5 -12.5t58.5 -38.5q27 -25 40 -59t13 -75q0 -47 -17 -92.5t-50 -89.5l180 -178l47 48l-4 4l-8 8q-7 5 -12 10l-9 9t-8 9t-8 9q-4 5 -6.5 9t-2.5 7t6.5 11t18.5 20q11 13 20 19t13 6q3 0 6.5 -1t5.5 -3l7.5 -7.5l15.5 -15.5q9 -9 19.5 -19
t21.5 -21q10 -11 21 -21.5t23 -20.5q10 -12 19.5 -21.5t16.5 -19.5q7 -8 11 -13t4 -6v0z" />
  </g>

</svg>
