<?xml version="1.0" standalone="no"?>
<!DOCTYPE svg PUBLIC "-//W3C//DTD SVG 1.1//EN" "http://www.w3.org/Graphics/SVG/1.1/DTD/svg11.dtd" >
<svg xmlns="http://www.w3.org/2000/svg" xmlns:xlink="http://www.w3.org/1999/xlink" version="1.1" viewBox="0 -64 1024 1024">
  <g transform="matrix(1 0 0 -1 0 960)">
   <path fill="currentColor"
d="M768 412v72q0 7 -2.5 14t-7.5 12q-6 6 -12 9t-14 3h-146v146q0 7 -3 13.5t-9 12.5q-4 4 -11 7t-15 3h-72q-7 0 -14 -2.5t-12 -7.5q-6 -6 -9 -12t-3 -14v-146h-146q-7 0 -13.5 -3t-12.5 -9q-4 -4 -7 -11t-3 -15v-72q0 -7 2.5 -14t7.5 -12q6 -6 12 -9t14 -3h146v-146
q0 -7 3 -13.5t9 -12.5q4 -4 11 -7t15 -3h72q7 0 14 2.5t12 7.5q6 6 9 12t3 14v146h146q7 0 13.5 3t12.5 9q4 4 7 11t3 15v0zM950 448q0 -60 -14 -115t-44 -105q-30 -51 -69.5 -90.5t-90.5 -69.5q-49 -30 -104.5 -44t-115.5 -14t-115 14t-105 44q-51 30 -90.5 69.5
t-69.5 90.5q-30 49 -44 104.5t-14 115.5t14 115t44 105q30 51 69.5 90.5t90.5 69.5q49 30 104.5 44t115.5 14t115 -14t105 -44q51 -30 90.5 -69.5t69.5 -90.5q30 -49 44 -104.5t14 -115.5v0z" />
  </g>

</svg>
