<?xml version="1.0" standalone="no"?>
<!DOCTYPE svg PUBLIC "-//W3C//DTD SVG 1.1//EN" "http://www.w3.org/Graphics/SVG/1.1/DTD/svg11.dtd" >
<svg xmlns="http://www.w3.org/2000/svg" xmlns:xlink="http://www.w3.org/1999/xlink" version="1.1" viewBox="0 -64 1024 1024">
  <g transform="matrix(1 0 0 -1 0 960)">
   <path fill="currentColor"
d="M923 791v-240q0 -7 -2 -13t-8 -11q-5 -6 -11 -8t-13 -2h-240q-11 0 -18.5 5t-13.5 16q-4 10 -2.5 19.5t9.5 17.5l75 74q-39 36 -86.5 54.5t-100.5 18.5q-28 0 -55 -5.5t-52 -15.5q-25 -11 -46.5 -25.5t-39.5 -34.5q-20 -18 -34.5 -39.5t-25.5 -46.5q-10 -25 -15.5 -52
t-5.5 -55t5.5 -55t15.5 -52q11 -25 25.5 -46.5t34.5 -39.5q18 -20 39.5 -34.5t46.5 -25.5q25 -10 52 -15.5t55 -5.5q32 0 62 7t58 21q28 13 52.5 32.5t43.5 46.5q2 2 5.5 4t7.5 2t7 -1.5t6 -4.5l73 -73q3 -3 4.5 -5t1.5 -6q0 -3 -1.5 -6l-2.5 -5q-30 -36 -65 -63.5
t-78 -47.5q-40 -20 -84 -29t-90 -9q-42 0 -81.5 7.5t-77.5 24.5t-71.5 38.5t-60.5 49.5q-28 27 -49.5 60.5t-38.5 71.5t-24.5 77.5t-7.5 81.5t7.5 81.5t24.5 77.5t38.5 71.5t49.5 60.5q27 28 60.5 49.5t71.5 38.5t77.5 24.5t81.5 7.5q39 0 77 -7t75 -21q36 -16 69.5 -37
t61.5 -48l69 69q9 9 18 10.5t20 -2.5q11 -6 16 -13.5t5 -18.5v0z" />
  </g>

</svg>
