<?xml version="1.0" standalone="no"?>
<!DOCTYPE svg PUBLIC "-//W3C//DTD SVG 1.1//EN" "http://www.w3.org/Graphics/SVG/1.1/DTD/svg11.dtd" >
<svg xmlns="http://www.w3.org/2000/svg" xmlns:xlink="http://www.w3.org/1999/xlink" version="1.1" viewBox="0 -64 1024 1024">
  <g transform="matrix(1 0 0 -1 0 960)">
   <path fill="currentColor"
d="M683 514q0 50 -17.5 92.5t-52.5 77.5q-35 36 -77.5 53t-92.5 17t-92 -17t-77 -53q-35 -35 -53 -77.5t-18 -92.5q0 -49 18 -91.5t53 -77.5t77 -53t92 -18t92.5 18t77.5 53t52.5 77.5t17.5 91.5v0zM958 69q0 -14 -5.5 -26.5t-14.5 -21.5q-10 -10 -22.5 -15.5t-26.5 -5.5
t-26.5 5.5t-22.5 15.5l-184 183q-47 -33 -100.5 -50t-112.5 -17q-38 0 -74.5 7t-72.5 23q-35 15 -64.5 35t-55.5 45q-25 26 -45 55.5t-35 64.5q-14 36 -22 72.5t-8 74.5q0 39 8 75.5t22 70.5q15 35 35 66t45 56q26 25 55.5 45t64.5 35q36 15 72.5 22t74.5 7q39 0 76 -7
t72 -21q33 -16 63.5 -36t56.5 -45q25 -25 45 -56t35 -66q14 -34 22 -70.5t8 -75.5q0 -59 -16.5 -112.5t-50.5 -101.5l184 -184q9 -10 14.5 -21.5t5.5 -25.5v0z" />
  </g>

</svg>
