<?xml version="1.0" standalone="no"?>
<!DOCTYPE svg PUBLIC "-//W3C//DTD SVG 1.1//EN" "http://www.w3.org/Graphics/SVG/1.1/DTD/svg11.dtd" >
<svg xmlns="http://www.w3.org/2000/svg" xmlns:xlink="http://www.w3.org/1999/xlink" version="1.1" viewBox="0 -64 1024 1024">
  <g transform="matrix(1 0 0 -1 0 960)">
   <path fill="currentColor"
d="M64 448q0 119 59 220t160 160q100 59 220 59q119 0 220 -59t160 -160t59 -220t-59 -220t-160 -160t-220 -59q-120 0 -220 59q-101 59 -160 160t-59 220v0zM193 642q4 -4 7 -5q2 0 3 -5q0 -5 1 -6q1 -2 7 1q5 -4 2 -10l25 -16q11 -10 12 -12q1 -6 -6 -10l-5 5q-5 4 -5 2
q-2 -3 0 -10q2 -8 6 -7q-4 0 -5 -10q-2 -9 -2 -20v-13l1 -1q-2 -7 3 -20q5 -12 12 -11q-7 -1 12 -24q3 -5 4 -5q2 -2 7 -5t9 -5q3 -3 5 -6q3 -3 6 -13t8 -14q-1 -3 5 -11q7 -8 6 -13l-1 -1h-1q1 -4 8 -8q8 -4 9 -8q1 -2 1 -6q1 -4 2 -6t5 -1q1 11 -14 35q-9 15 -10 17l-3 9
q-1 6 -2 8q1 0 3 -1t5 -2l4 -2t1 -2q-1 -4 1 -10q3 -6 7 -10q4 -5 10 -11t7 -8q3 -3 8 -11q4 -7 0 -7q5 0 11 -6q7 -6 10 -12q3 -4 5 -14q1 -11 2 -14q2 -4 5 -8q4 -4 7 -5l10 -5v0l7 -4q3 -1 11 -6q7 -5 12 -6q6 -3 9 -3t8 2q5 1 8 2q9 1 17 -9t12 -12q20 -11 31 -6
q-1 -1 0 -4q2 -4 5 -9t5 -9q2 -3 3 -4q3 -4 10 -9q8 -5 11 -9q3 3 4 6q-2 -5 4 -12q5 -7 10 -6q8 2 8 19q-18 -9 -28 10q0 1 -1 3q-2 3 -3 5t-1 5q-1 2 0 4q0 2 3 2q5 0 5 2q1 2 -1 7q-1 5 -2 7q-1 5 -6 12q-6 7 -7 8q-3 -5 -9 -4q-7 0 -9 5q0 -1 -1 -3q-1 -3 -1 -4
q-8 0 -9 1q1 1 2 10q1 8 2 13q0 2 3 6q2 5 4 9q2 3 2 7q1 3 -2 5t-10 2q-11 -1 -15 -12q-1 -1 -2 -6q-1 -4 -3 -6q-1 -3 -5 -4q-4 -2 -13 -1q-10 0 -14 2q-8 5 -13 17t-5 21q0 6 1 15q1 10 2 15q0 4 -3 14l5 5q3 4 5 6q2 1 3 1h3q1 0 2 1t2 3q-1 1 -3 2q-1 2 -2 2q4 -2 16 0
q13 3 16 0q9 -7 13 1l-2 5q-1 5 0 8q3 -16 16 -5q2 -2 9 -3t10 -3q2 -1 4 -3q3 -2 3 -3q1 0 3 1q2 0 5 3q6 -8 7 -13q6 -23 11 -26q4 -1 6 -1q2 1 3 6v8q-1 3 -1 7l-1 4v11v4q-9 2 -11 7t1 11q3 5 9 10q0 1 4 2q4 2 9 4t7 5q12 10 9 20q4 0 6 5q-1 0 -3 1q-2 2 -4 3t-3 1
q5 3 1 10q3 1 5 6q1 4 4 6q5 -7 12 -2q4 5 1 10q2 4 11 6t11 5q4 -1 4 1q1 2 1 7t2 7q2 3 8 5q7 2 8 3l9 6q2 2 0 2q11 -1 18 7q6 6 -3 11q1 4 -2 6t-9 3h7t6 1q9 6 -4 9q-10 3 -25 -7q-1 0 -5 -5t-8 -6q1 0 3 3q1 3 3 6q1 4 2 4q3 4 12 9q8 3 30 7q19 4 29 -6q-1 1 6 7
q6 6 8 7t8 2q7 2 9 5l1 12q-7 0 -10 4q-3 5 -4 12q0 -1 -3 -4q0 4 -3 4q-2 1 -6 0t-5 -1q-6 2 -9 4q-3 3 -4 10q-2 7 -3 8q-1 3 -5 6l-6 6q0 2 -1 4t-2 3q-1 2 -2 3q-1 2 -3 2t-4 -3l-4 -6t-3 -3q-2 2 -3 1h-3q-1 -1 -3 -2l-2 -2q-2 -1 -5 -2q-3 0 -5 -1q8 3 -1 6q-5 3 -9 2
q5 2 4 7q0 5 -4 8h2q0 2 -4 5q-5 2 -10 5q-6 2 -8 3q-4 3 -19 6q-15 2 -19 0q-3 -4 -3 -6q1 -3 3 -8q2 -6 2 -7q0 -4 -4 -8q-3 -4 -3 -7q0 -4 8 -8q8 -5 5 -13q-1 -4 -9 -9q-7 -4 -9 -7q-3 -4 -1 -10t6 -10q1 -1 1 -2t-2 -3q-2 -1 -3 -2t-4 -2l-1 -1q-7 -3 -12 3q-6 7 -8 15
q-4 15 -9 17q-13 5 -17 0q-2 7 -23 15q-14 5 -33 2q3 1 0 9q-4 8 -11 6q2 4 2 10q1 7 1 8q2 8 7 13q0 1 4 5q3 4 5 8q2 3 0 3q20 -2 29 7q3 2 7 9q3 7 6 10q5 3 8 3q2 0 8 -3q5 -3 8 -3q8 0 9 6q1 7 -4 12q7 -1 1 10q-2 4 -4 5q-7 2 -16 -3q-4 -2 2 -5q-1 1 -6 -6
q-5 -6 -9 -10q-5 -3 -9 3q-1 1 -4 8q-2 7 -5 8q-5 0 -9 -9q2 5 -6 9t-14 4q11 7 -5 16q-4 2 -11 2q-8 1 -12 -2l-3 -6q0 -3 3 -5t6 -3t7 -2q3 -2 5 -2q8 -6 4 -8q-1 -1 -5 -2q-3 -2 -6 -3t-4 -2q-1 -2 0 -8q2 -6 -1 -8q-3 3 -5 10t-4 9q4 -5 -14 -3l-6 1q-2 0 -9 -2
q-7 -1 -12 0q-5 0 -8 4q-2 5 0 12q1 2 3 1q-3 2 -7 5l-5 5q-27 -8 -54 -23q3 -1 7 0q3 2 7 4q5 3 6 3q19 8 24 4l3 3q8 -9 11 -14q-4 2 -17 0q-11 -3 -12 -6q4 -7 2 -11l-6 6t-8 6q-4 3 -9 3h-13q-83 -46 -134 -127v0zM565 97q0 -3 1 -9q118 21 201 108q-2 2 -7 3q-6 0 -7 2
q-11 4 -14 4q0 4 -2 8q-2 3 -4 5q-3 1 -7 4q-5 3 -7 4l-4 4q-2 2 -4 3q-1 1 -4 2q-3 2 -5 2q-1 -1 -5 -1l-2 -1q-2 0 -3 -1q-2 -1 -3 -2q-2 -1 -3 -1v-2q-12 10 -20 13q-3 0 -7 3l-6 4q-2 1 -5 1q-3 -1 -7 -4q-3 -3 -3 -9q-1 -6 -1 -7q-4 3 0 10t1 10q-2 4 -6 3q-5 -1 -7 -3
q-3 -1 -7 -5q-4 -3 -5 -3q-1 -1 -5 -3l-5 -5q-1 -2 -3 -7l-3 -6q-1 2 -6 4q-6 1 -6 3q1 -6 2 -20q2 -14 3 -22q4 -17 -7 -27q-15 -14 -16 -23q-2 -13 7 -15q0 -4 -5 -12q-4 -7 -4 -12v0z" />
  </g>

</svg>
