<?xml version="1.0" standalone="no"?>
<!DOCTYPE svg PUBLIC "-//W3C//DTD SVG 1.1//EN" "http://www.w3.org/Graphics/SVG/1.1/DTD/svg11.dtd" >
<svg xmlns="http://www.w3.org/2000/svg" xmlns:xlink="http://www.w3.org/1999/xlink" version="1.1" viewBox="0 -64 1024 1024">
  <g transform="matrix(1 0 0 -1 0 960)">
   <path fill="currentColor"
d="M214 150q-30 29 -53 63.5t-38.5 73t-24 79t-8.5 82.5q0 87 33.5 164t90.5 134t134 90.5t164 33.5l53 -53l-53 -53q-66 0 -123.5 -24.5t-100.5 -67.5t-67.5 -100.5t-24.5 -123.5q0 -63 23.5 -121.5t68.5 -102.5l-64 -8zM512 26l-53 53l53 53q66 0 123.5 24.5t100.5 67.5
t67.5 100.5t24.5 123.5q0 63 -23.5 121.5t-68.5 102.5l64 8l10 66q30 -29 53 -63.5t38.5 -73t24 -79t8.5 -82.5q0 -87 -33.5 -164t-90.5 -134t-134 -90.5t-164 -33.5v0z" />
  </g>

</svg>
