<?xml version="1.0" standalone="no"?>
<!DOCTYPE svg PUBLIC "-//W3C//DTD SVG 1.1//EN" "http://www.w3.org/Graphics/SVG/1.1/DTD/svg11.dtd" >
<svg xmlns="http://www.w3.org/2000/svg" xmlns:xlink="http://www.w3.org/1999/xlink" version="1.1" viewBox="0 -64 1024 1024">
  <g transform="matrix(1 0 0 -1 0 960)">
   <path fill="currentColor"
d="M330 704q0 15 -5.5 28t-16.5 24q-10 10 -23.5 16t-28.5 6t-28 -5.5t-24 -16.5q-10 -10 -16 -23.5t-6 -28.5t5.5 -28t16.5 -24q10 -10 23.5 -16t28.5 -6t28 5.5t24 16.5q10 10 16 23.5t6 28.5v0zM938 374q0 -15 -4.5 -27t-15.5 -23l-280 -282q-12 -10 -25 -15t-27 -5
q-16 0 -28.5 4.5t-23.5 15.5l-408 410q-12 10 -21 24t-17 34q-7 18 -10.5 34.5t-3.5 31.5v238q0 15 4.5 27.5t15.5 24.5q12 10 24.5 15t27.5 5h238q15 0 31.5 -3t34.5 -11q19 -7 33.5 -16.5t26.5 -21.5l408 -408q10 -10 15 -23.5t5 -28.5v0z" />
  </g>

</svg>
