<?xml version="1.0" standalone="no"?>
<!DOCTYPE svg PUBLIC "-//W3C//DTD SVG 1.1//EN" "http://www.w3.org/Graphics/SVG/1.1/DTD/svg11.dtd" >
<svg xmlns="http://www.w3.org/2000/svg" xmlns:xlink="http://www.w3.org/1999/xlink" version="1.1" viewBox="0 -64 1024 1024">
  <g transform="matrix(1 0 0 -1 0 960)">
   <path fill="currentColor"
d="M954 668q0 -10 -3.5 -20t-12.5 -18l-490 -492q-9 -7 -18.5 -11.5t-21.5 -4.5q-10 0 -20 4t-18 12l-284 284q-9 9 -12.5 18.5t-3.5 21.5q0 10 3.5 20t12.5 18l76 78q9 7 18.5 11.5t21.5 4.5q10 0 20 -4t18 -12l168 -168l376 376q7 7 17 11.5t21 4.5q12 0 21.5 -4t18.5 -12
l76 -78q9 -9 12.5 -18.5t3.5 -21.5v0z" />
  </g>

</svg>
