<?xml version="1.0" standalone="no"?>
<!DOCTYPE svg PUBLIC "-//W3C//DTD SVG 1.1//EN" "http://www.w3.org/Graphics/SVG/1.1/DTD/svg11.dtd" >
<svg xmlns="http://www.w3.org/2000/svg" xmlns:xlink="http://www.w3.org/1999/xlink" version="1.1" viewBox="0 -64 1024 1024">
  <g transform="matrix(1 0 0 -1 0 960)">
   <path fill="currentColor"
d="M633 253l-174 173v233h106v-189l142 -143zM512 870q-87 0 -164 -33t-134.5 -90.5t-90.5 -134.5t-33 -164t33 -164t90.5 -134.5t134.5 -90.5t164 -33t164 33t134.5 90.5t90.5 134.5t33 164t-33 164t-90.5 134.5t-134.5 90.5t-164 33v0zM512 132q-66 0 -123.5 24.5
t-100.5 67.5t-67.5 100.5t-24.5 123.5t24.5 123.5t67.5 100.5t100.5 67.5t123.5 24.5t123.5 -24.5t100.5 -67.5t67.5 -100.5t24.5 -123.5t-24.5 -123.5t-67.5 -100.5t-100.5 -67.5t-123.5 -24.5v0z" />
  </g>

</svg>
