<?xml version="1.0" standalone="no"?>
<!DOCTYPE svg PUBLIC "-//W3C//DTD SVG 1.1//EN" "http://www.w3.org/Graphics/SVG/1.1/DTD/svg11.dtd" >
<svg xmlns="http://www.w3.org/2000/svg" xmlns:xlink="http://www.w3.org/1999/xlink" version="1.1" viewBox="0 -64 1024 1024">
  <g transform="matrix(1 0 0 -1 0 960)">
   <path fill="currentColor"
d="M0 658v219h46l31 -15q7 -3 121 -3q25 0 75 1t76 1h61h61h168q3 0 12 -1h12q3 1 9 2t10 5t8 10l24 1q3 0 8 -1h8q1 -64 1 -192q0 -46 -2 -62q-23 -8 -39 -10q-15 25 -31 73q-2 5 -6 27q-5 22 -9 42q-3 20 -4 20q-3 5 -7 8q-3 2 -9 3q-5 1 -7 1q-2 1 -10 1q-9 -1 -10 -1
q-10 0 -38 1h-42q-15 0 -37 -1t-41 -4q-5 -46 -4 -77q0 -54 1 -222t1 -260q0 -9 -1 -41q-2 -32 0 -52q1 -21 7 -40q23 -12 71 -24t68 -21q3 -23 3 -29q0 -8 -2 -16l-19 -1q-43 -1 -125 5q-81 5 -118 5q-28 0 -86 -5t-87 -5q-2 29 -2 30v5q10 15 35 24q26 10 57 17t44 15
q11 24 11 219q0 58 -2 173q-1 116 -1 174v66v9v15v14q-1 8 -2 14t-3 8q-6 7 -92 7q-19 0 -54 -7q-34 -7 -45 -15q-11 -7 -20 -41q-8 -34 -18 -64q-9 -29 -24 -30q-24 14 -32 25v0zM808 136q5 10 24 10h46v585h-46q-19 0 -24 11t6 25l72 93q12 15 28 15q17 0 28 -15l72 -93
q12 -14 7 -25q-6 -11 -24 -11h-46v-585h46q18 0 24 -10q5 -11 -7 -26l-72 -92q-11 -15 -28 -15q-16 0 -28 15l-72 92q-11 15 -6 26v0z" />
  </g>

</svg>
