<?xml version="1.0" standalone="no"?>
<!DOCTYPE svg PUBLIC "-//W3C//DTD SVG 1.1//EN" "http://www.w3.org/Graphics/SVG/1.1/DTD/svg11.dtd" >
<svg xmlns="http://www.w3.org/2000/svg" xmlns:xlink="http://www.w3.org/1999/xlink" version="1.1" viewBox="0 -64 1024 1024">
  <g transform="matrix(1 0 0 -1 0 960)">
   <path fill="currentColor"
d="M923 448q0 -42 -7.5 -81.5t-24.5 -77.5t-38.5 -71.5t-49.5 -60.5q-27 -28 -60.5 -49.5t-71.5 -38.5t-77.5 -24.5t-81.5 -7.5q-46 0 -90 9t-84 29q-43 20 -78 47.5t-65 62.5q-1 3 -2.5 6t-1.5 6q0 4 1.5 6t4.5 5l73 73q3 3 6 4.5t7 1.5t7.5 -2t5.5 -4q19 -27 43.5 -46.5
t52.5 -32.5q28 -14 58 -21t62 -7q28 0 55 5.5t52 15.5q25 11 46.5 25.5t39.5 34.5q20 18 34.5 39.5t25.5 46.5q10 25 15.5 52t5.5 55t-5.5 55t-15.5 52q-11 25 -25.5 46.5t-34.5 39.5q-18 20 -39.5 34.5t-46.5 25.5q-25 10 -52 15.5t-55 5.5q-27 0 -52 -4.5t-49 -14.5
t-45 -23t-40 -31l73 -73q9 -9 10.5 -18.5t-2.5 -19.5q-6 -11 -13.5 -16t-18.5 -5h-240q-7 0 -13 2t-11 8q-6 5 -8 11t-2 13v240q0 11 5 18.5t16 13.5q10 4 19.5 2.5t17.5 -9.5l70 -70q28 27 61.5 48t69.5 36q37 15 75 22t77 7q42 0 81.5 -7.5t77.5 -24.5t71.5 -38.5
t60.5 -49.5q28 -27 49.5 -60.5t38.5 -71.5t24.5 -77.5t7.5 -81.5v0z" />
  </g>

</svg>
