<?xml version="1.0" standalone="no"?>
<!DOCTYPE svg PUBLIC "-//W3C//DTD SVG 1.1//EN" "http://www.w3.org/Graphics/SVG/1.1/DTD/svg11.dtd" >
<svg xmlns="http://www.w3.org/2000/svg" xmlns:xlink="http://www.w3.org/1999/xlink" version="1.1" viewBox="0 -64 1024 1024">
  <g transform="matrix(1 0 0 -1 0 960)">
   <path fill="currentColor"
d="M789 798q0 -8 -5.5 -14t-14.5 -6q-7 0 -13 6t-6 14q0 9 6 14t13 5q9 0 14.5 -5t5.5 -14v0zM796 613l-33.5 57t-153.5 33q-11 42 -7.5 74t29.5 59q36 39 81 32l45 -7v41q-20 9 -40 11.5t-40 2.5q-78 0 -123.5 -45.5t-63.5 -85.5l-289 -531l83 14l-151 -288l105 19l80 226
q84 0 175 17.5t163 61.5t113.5 119t26.5 190v0zM893 715l-63 63l-51 -63h114zM354 290l6.5 1.5t15.5 3.5q9 4 23 6.5t30 8.5q10 1 19 4.5t18 4.5q9 4 19.5 7.5t19.5 7.5q11 5 20 9.5l19 9.5q10 6 19.5 12.5t18.5 12.5q2 1 5 3t5 4l7 7l10 10l7 7q4 4 7.5 9t7.5 8q2 2 3.5 4
t3.5 6l3 5l2 2q2 4 3.5 6t1.5 4q2 2 3.5 5t1.5 5q2 1 2 2v2q2 0 2.5 1.5t0.5 3.5l2 4l2 4q2 5 4 9.5t4 9.5q0 4 1.5 8t3.5 9q0 4 1 7.5t1 7.5q0 3 1 6.5t1 7.5t1.5 7.5t1.5 7.5v4.5v4.5q0 9 1 15.5l1 6.5l12 -2l-1 -5.5t-1 -14.5q0 -3 -1 -5.5t-1 -6.5q0 -3 -0.5 -6.5
t-2.5 -5.5v-7.5t-2 -9.5q0 -4 -1.5 -7.5t-1.5 -6.5q-1 -6 -3 -10t-4 -10q-2 -4 -3.5 -8.5t-3.5 -8.5q0 -2 -1.5 -5t-3.5 -5q0 -1 -0.5 -2t-2.5 -2v-2.5t-2 -2.5q0 -2 -1.5 -4t-3.5 -6q-2 -2 -2.5 -3.5t-2.5 -3.5q-1 -2 -1.5 -3.5l-0.5 -1.5l-5 -5q-2 -2 -3.5 -5t-3.5 -5
q-4 -3 -7.5 -8t-7.5 -9l-7 -7l-10 -10l-7 -7q-4 -2 -6 -2.5t-4 -2.5q-11 -7 -20.5 -14t-20.5 -13q-9 -3 -19.5 -8t-19.5 -9q-11 -3 -20.5 -6.5t-20.5 -7.5q-9 -2 -18 -5t-19 -5q-16 -3 -30 -6.5t-23 -5.5t-15.5 -3.5l-6.5 -1.5v0z" />
  </g>

</svg>
