<?xml version="1.0" standalone="no"?>
<!DOCTYPE svg PUBLIC "-//W3C//DTD SVG 1.1//EN" "http://www.w3.org/Graphics/SVG/1.1/DTD/svg11.dtd" >
<svg xmlns="http://www.w3.org/2000/svg" xmlns:xlink="http://www.w3.org/1999/xlink" version="1.1" viewBox="0 -64 1024 1024">
  <g transform="matrix(1 0 0 -1 0 960)">
   <path fill="currentColor"
d="M681 570v-6v-5q0 -3 -1 -6t-1 -7q0 -3 -1 -7t-1 -7q-1 -4 -2.5 -8t-1.5 -8q-1 -5 -2.5 -9t-2.5 -8q-2 -5 -3.5 -9t-2.5 -10q-1 -2 -2.5 -4t-1.5 -4q-1 -1 -1.5 -2.5t-0.5 -2.5q-1 -2 -1.5 -2.5l-1.5 -1.5q-2 -3 -2.5 -5t-1.5 -4q-2 -3 -3 -5t-3 -5l-3 -3l-2 -6
q-2 -2 -3.5 -4t-4.5 -4q-3 -4 -6 -9t-7 -7q-4 -5 -8.5 -9t-8.5 -8l-7 -8q-3 -1 -5 -3t-5 -4q-8 -7 -17.5 -13t-19.5 -12q-10 -5 -20 -9.5t-20 -8.5q-9 -5 -19 -9t-20 -6q-8 -3 -16.5 -6t-17.5 -6q-17 -4 -30.5 -7t-23.5 -6t-15.5 -3.5l-5.5 -0.5l5.5 0.5t15.5 3.5
q10 2 23.5 4.5t30.5 6.5q9 3 17.5 5t18.5 5t19.5 7t19.5 8t20 8.5t20 9.5q9 5 19 11.5t20 13.5q3 1 5 2.5t4 2.5l10 8q4 4 8 8.5t7 8.5q4 4 8 8.5t7 8.5l4.5 4.5t2.5 4.5l4 4q0 1 1 2.5t1 2.5q1 2 3 4.5t4 5.5q0 1 1.5 3.5t2.5 5.5q2 0 2 1.5t2 2.5v2.5t2 3.5q1 1 1.5 3.5
t1.5 5.5q3 4 5 8.5t3 8.5q1 5 2.5 9.5t3.5 9.5q1 4 1.5 8t1.5 7q2 4 2.5 8t1.5 7q0 4 0.5 7t1.5 6v7v4l1.5 16.5l0.5 5.5h-11l-0.5 -5l-1.5 -15v0zM891 720l-64 62q-1 46 -23.5 76t-36.5 38q-14 13 -44 21t-67 4q-35 -6 -80.5 -30t-80.5 -90q-34 -65 -83.5 -158
t-95.5 -178.5t-78.5 -147t-32.5 -62.5q-2 0 -2 -1t1 -1q0 -1 1 -1.5l1 -0.5l75 13l-146 -283q0 -1 0.5 -1.5t1.5 -2.5v0h2v0v0l105 19l1 0.5t1 1.5l77 225q73 1 136 10t114 27t90.5 45t67.5 62q30 38 44 79.5t18 80.5t1 73t-8 56l-10 58h113l1 0.5t1 1.5q1 0 0.5 1t-0.5 3v0
zM788 799q0 -7 -6 -13t-13 -6q-9 0 -14 6t-5 13q0 8 5 14t14 6q7 0 13 -6t6 -14v0zM726 371q-28 -35 -67.5 -61.5t-90 -44t-112.5 -26t-135 -8.5q-2 0 -2 -1.5v-2.5l-79 -225l-95 -17l146 283v1.5v2.5q-2 0 -2.5 1t-1.5 1l-75 -15q10 18 44.5 82t78 145.5t89 166t77.5 144.5
q35 64 78.5 88t76.5 28q36 4 63.5 -2.5t41.5 -16.5v-41q-2 0 -19 4.5t-35 4.5t-37.5 -7t-31.5 -21q-23 -25 -28.5 -53t5.5 -70q76 14 113.5 -8.5t49.5 -42.5q5 -21 9 -54.5t0.5 -72.5t-17.5 -81t-44 -81v0zM780 720l43 56l56 -56h-99z" />
  </g>

</svg>
